<?xml version="1.0" encoding="utf-8"?>
<!-- Generator: Adobe Illustrator 27.9.0, SVG Export Plug-In . SVG Version: 6.00 Build 0)  -->
<svg version="1.1" id="Layer_2_00000045618248520970457970000013623608376421412258_"
	 xmlns="http://www.w3.org/2000/svg" xmlns:xlink="http://www.w3.org/1999/xlink" x="0px" y="0px" viewBox="0 0 808.3 78.2"
	 style="enable-background:new 0 0 808.3 78.2;" xml:space="preserve">
<style type="text/css">
	.st0{fill:#272F39;}
	.st1{fill:#F1EA4E;}
	.st2{fill:#231F20;}
	.st3{fill:#ED3546;}
	.st4{fill:#5A89C7;}
	.st5{fill:#5EBC5E;}
	.st6{fill:#101725;}
	.st7{fill:#ED1C24;stroke:#231F20;stroke-miterlimit:10;}
</style>
<g>
	<rect x="0" y="39.7" class="st0" width="808.3" height="100.8"/>
	<g>
		<ellipse class="st1" cx="395.8" cy="48.6" rx="11.6" ry="4.9"/>
		<ellipse class="st2" cx="395.9" cy="46.9" rx="8.5" ry="2"/>
		<path class="st1" d="M404,44.2v2.2c0,0.1,0,0.2-0.1,0.2c-0.5,1-4,1.7-8.2,1.7s-7.7-0.7-8.2-1.7c0-0.1-0.1-0.2-0.1-0.2v-2.1h0
			c0,0,0-0.1,0-0.1c0-2.6,3.7-4.7,8.2-4.7S404,41.6,404,44.2L404,44.2z"/>
	</g>
	<g>
		<ellipse class="st3" cx="425.2" cy="61.3" rx="11.6" ry="4.9"/>
		<ellipse class="st2" cx="425.4" cy="59.6" rx="8.5" ry="2"/>
		<path class="st3" d="M433.4,56.9v2.2c0,0.1,0,0.2-0.1,0.2c-0.5,1-4,1.7-8.2,1.7s-7.7-0.7-8.2-1.7c0-0.1-0.1-0.2-0.1-0.2V57h0
			c0,0,0-0.1,0-0.1c0-2.6,3.7-4.7,8.2-4.7S433.4,54.3,433.4,56.9L433.4,56.9z"/>
	</g>
	<g>
		<ellipse class="st4" cx="450.1" cy="46.3" rx="11.6" ry="4.9"/>
		<ellipse class="st2" cx="450.2" cy="44.7" rx="8.5" ry="2"/>
		<path class="st4" d="M458.3,42v2.2c0,0.1,0,0.2-0.1,0.2c-0.5,1-4,1.7-8.2,1.7s-7.7-0.7-8.2-1.7c0-0.1-0.1-0.2-0.1-0.2v-2.1h0
			c0,0,0-0.1,0-0.1c0-2.6,3.7-4.7,8.2-4.7S458.3,39.4,458.3,42L458.3,42z"/>
	</g>
	<g>
		<ellipse class="st5" cx="484.5" cy="60.4" rx="11.6" ry="4.9"/>
		<ellipse class="st2" cx="484.6" cy="58.7" rx="8.5" ry="2"/>
		<path class="st5" d="M492.7,56v2.2c0,0.1,0,0.2-0.1,0.2c-0.5,1-4,1.7-8.2,1.7s-7.7-0.7-8.2-1.7c0-0.1-0.1-0.2-0.1-0.2v-2.1h0
			c0,0,0-0.1,0-0.1c0-2.6,3.7-4.7,8.2-4.7S492.7,53.4,492.7,56L492.7,56z"/>
	</g>
	<g>
		<ellipse class="st6" cx="310.5" cy="48.8" rx="12.8" ry="5"/>
		<ellipse class="st6" cx="310.5" cy="54.6" rx="19.1" ry="7.8"/>
		<ellipse class="st6" cx="310.5" cy="59.5" rx="24.9" ry="8.5"/>
		<rect x="306.9" y="24.7" class="st7" width="7.1" height="23.7"/>
		<ellipse class="st7" cx="310.5" cy="23.7" rx="14.1" ry="11.8"/>
	</g>
</g>
</svg>
