<?xml version="1.0" encoding="UTF-8"?>
<svg id="Layer_2" data-name="Layer 2" xmlns="http://www.w3.org/2000/svg" viewBox="0 0 808.31 78.21">
  <defs>
    <style>
      .cls-1 {
        fill: #ed1c24;
        stroke: #231f20;
        stroke-miterlimit: 10;
      }

      .cls-2 {
        fill: #5ebc5e;
      }

      .cls-2, .cls-3, .cls-4, .cls-5, .cls-6, .cls-7, .cls-8 {
        stroke-width: 0px;
      }

      .cls-3 {
        fill: #5a89c7;
      }

      .cls-4 {
        fill: #272f39;
      }

      .cls-5 {
        fill: #231f20;
      }

      .cls-6 {
        fill: #101725;
      }

      .cls-7 {
        fill: #f1ea4e;
      }

      .cls-8 {
        fill: #ed3546;
      }
    </style>
  </defs>
  <g id="Layer_1-2" data-name="Layer 1">
    <rect class="cls-4" y="28.31" width="808.31" height="49.9"/>
    <g>
      <ellipse class="cls-7" cx="395.81" cy="37.15" rx="11.64" ry="4.88"/>
      <ellipse class="cls-5" cx="395.94" cy="35.49" rx="8.48" ry="2"/>
      <path class="cls-7" d="m404.02,32.8v2.24c0,.08-.02.16-.06.24-.5.96-3.96,1.7-8.16,1.7s-7.66-.74-8.16-1.7c-.04-.08-.06-.16-.06-.24v-2.12h.02s-.01-.08-.01-.12c0-2.61,3.68-4.73,8.21-4.73s8.22,2.12,8.22,4.73Z"/>
    </g>
    <g>
      <ellipse class="cls-8" cx="425.23" cy="49.85" rx="11.64" ry="4.88"/>
      <ellipse class="cls-5" cx="425.37" cy="48.19" rx="8.48" ry="2"/>
      <path class="cls-8" d="m433.44,45.5v2.24c0,.08-.02.16-.06.24-.5.96-3.96,1.7-8.16,1.7s-7.66-.74-8.16-1.7c-.04-.08-.06-.16-.06-.24v-2.12h.02s-.01-.08-.01-.12c0-2.61,3.68-4.73,8.21-4.73s8.22,2.12,8.22,4.73Z"/>
    </g>
    <g>
      <ellipse class="cls-3" cx="450.1" cy="34.93" rx="11.64" ry="4.88"/>
      <ellipse class="cls-5" cx="450.23" cy="33.28" rx="8.48" ry="2"/>
      <path class="cls-3" d="m458.31,30.59v2.24c0,.08-.02.16-.06.24-.5.96-3.96,1.7-8.16,1.7s-7.66-.74-8.16-1.7c-.04-.08-.06-.16-.06-.24v-2.12h.02s-.01-.08-.01-.12c0-2.61,3.68-4.73,8.21-4.73s8.22,2.12,8.22,4.73Z"/>
    </g>
    <g>
      <ellipse class="cls-2" cx="484.48" cy="48.96" rx="11.64" ry="4.88"/>
      <ellipse class="cls-5" cx="484.61" cy="47.31" rx="8.48" ry="2"/>
      <path class="cls-2" d="m492.69,44.62v2.24c0,.08-.02.16-.06.24-.5.96-3.96,1.7-8.16,1.7s-7.66-.74-8.16-1.7c-.04-.08-.06-.16-.06-.24v-2.12h.02s-.01-.08-.01-.12c0-2.61,3.68-4.73,8.21-4.73s8.22,2.12,8.22,4.73Z"/>
    </g>
    <g>
      <ellipse class="cls-6" cx="310.47" cy="37.38" rx="12.83" ry="4.95"/>
      <ellipse class="cls-6" cx="310.47" cy="43.22" rx="19.1" ry="7.82"/>
      <ellipse class="cls-6" cx="310.47" cy="48.06" rx="24.94" ry="8.48"/>
      <rect class="cls-1" x="306.91" y="13.31" width="7.1" height="23.67"/>
      <ellipse class="cls-1" cx="310.47" cy="12.28" rx="14.07" ry="11.78"/>
    </g>
  </g>
</svg>