<?xml version="1.0" encoding="UTF-8"?>
<svg id="Layer_2" data-name="Layer 2" xmlns="http://www.w3.org/2000/svg" viewBox="0 0 1920 129.1">
  <defs>
    <style>
      .cls-1 {
        fill: #ed1c24;
        stroke: #231f20;
        stroke-miterlimit: 10;
      }

      .cls-2 {
        fill: #5ebc5e;
      }

      .cls-2, .cls-3, .cls-4, .cls-5, .cls-6, .cls-7, .cls-8 {
        stroke-width: 0px;
      }

      .cls-3 {
        fill: #5a89c7;
      }

      .cls-4 {
        fill: #272f39;
      }

      .cls-5 {
        fill: #231f20;
      }

      .cls-6 {
        fill: #101725;
      }

      .cls-7 {
        fill: #f1ea4e;
      }

      .cls-8 {
        fill: #ed3546;
      }
    </style>
  </defs>
  <g id="Layer_1-2" data-name="Layer 1">
    <g>
      <rect class="cls-4" y="28.3" width="1920" height="100.8"/>
      <g>
        <ellipse class="cls-7" cx="934.65" cy="37.2" rx="11.6" ry="4.9"/>
        <ellipse class="cls-5" cx="934.75" cy="35.5" rx="8.5" ry="2"/>
        <path class="cls-7" d="m942.85,32.8v2.2c0,.1,0,.2-.1.2-.5,1-4,1.7-8.2,1.7s-7.7-.7-8.2-1.7c0-.1-.1-.2-.1-.2v-2.1h0v-.1c0-2.6,3.7-4.7,8.2-4.7s8.4,2.1,8.4,4.7h0Z"/>
      </g>
      <g>
        <ellipse class="cls-8" cx="964.05" cy="49.9" rx="11.6" ry="4.9"/>
        <ellipse class="cls-5" cx="964.25" cy="48.2" rx="8.5" ry="2"/>
        <path class="cls-8" d="m972.25,45.5v2.2c0,.1,0,.2-.1.2-.5,1-4,1.7-8.2,1.7s-7.7-.7-8.2-1.7c0-.1-.1-.2-.1-.2v-2.1h0v-.1c0-2.6,3.7-4.7,8.2-4.7s8.4,2.1,8.4,4.7h0Z"/>
      </g>
      <g>
        <ellipse class="cls-3" cx="988.95" cy="34.9" rx="11.6" ry="4.9"/>
        <ellipse class="cls-5" cx="989.05" cy="33.3" rx="8.5" ry="2"/>
        <path class="cls-3" d="m997.15,30.6v2.2c0,.1,0,.2-.1.2-.5,1-4,1.7-8.2,1.7s-7.7-.7-8.2-1.7c0-.1-.1-.2-.1-.2v-2.1h0v-.1c0-2.6,3.7-4.7,8.2-4.7s8.4,2.1,8.4,4.7h0Z"/>
      </g>
      <g>
        <ellipse class="cls-2" cx="1023.35" cy="49" rx="11.6" ry="4.9"/>
        <ellipse class="cls-5" cx="1023.45" cy="47.3" rx="8.5" ry="2"/>
        <path class="cls-2" d="m1031.55,44.6v2.2c0,.1,0,.2-.1.2-.5,1-4,1.7-8.2,1.7s-7.7-.7-8.2-1.7c0-.1-.1-.2-.1-.2v-2.1h0v-.1c0-2.6,3.7-4.7,8.2-4.7s8.4,2.1,8.4,4.7h0Z"/>
      </g>
      <g>
        <ellipse class="cls-6" cx="849.35" cy="37.4" rx="12.8" ry="5"/>
        <ellipse class="cls-6" cx="849.35" cy="43.2" rx="19.1" ry="7.8"/>
        <ellipse class="cls-6" cx="849.35" cy="48.1" rx="24.9" ry="8.5"/>
        <rect class="cls-1" x="845.75" y="13.3" width="7.1" height="23.7"/>
        <ellipse class="cls-1" cx="849.35" cy="12.3" rx="14.1" ry="11.8"/>
      </g>
    </g>
  </g>
</svg>